# xmcd
#
# Track frame offsets:
#	150
#	14597
#	30150
#	52150
#	73559
#	87949
#	109770
#	128680
#	153817
#	174065
#	192097
#	219016
#
# Disc length: 3148
#
# Revision: 1
# Processed by: cddbd v1.5.1PL0 Copyright (c) Steve Scherf et al.
# Submitted via: CDex 1.51
# Normalized: r0:TDELIM( - )
#
DISCID=8b0c4a0c
DTITLE=Various Artist - Sirens of Song - Sultry Singers
DYEAR=2003
DGENRE=Blues
TTITLE0=Connie Evingson - Why Don't You Do Right
TTITLE1=Lavay Smith and Her Red Hot Skillet Lickers - Blow Me a Fat Note
TTITLE2=Jacqui Naylor - Miss You
TTITLE3=Christie McCarthy - Nothing Moves Me
TTITLE4=Wax Poetic featuring Norah Jones - Angels
TTITLE5=Oleta Adams - Bump In The Road
TTITLE6=Millicent Wood - Summertime
TTITLE7=Diana Krall - Body and Soul
TTITLE8=Ledisi - I Want'cha Babe
TTITLE9=Stacey Kent - Under a Blanket of Blue
TTITLE10=Janis Siegel - I Just Want to Make Love to You
TTITLE11=Kelly Flint with Dave's True Story - Dear Miss Lucy
EXTD=YEAR: 2003
EXTT0=
EXTT1=
EXTT2=
EXTT3=
EXTT4=
EXTT5=
EXTT6=
EXTT7=
EXTT8=
EXTT9=
EXTT10=
EXTT11=
PLAYORDER=
